<?xml version="1.0" encoding="UTF-8" standalone="no"?>
<!DOCTYPE svg PUBLIC "-//W3C//DTD SVG 1.1//EN"
 "http://www.w3.org/Graphics/SVG/1.1/DTD/svg11.dtd">
<!-- Generated by graphviz version 11.0.0 (0)
 -->
<!-- Title: G Pages: 1 -->
<svg width="76pt" height="188pt"
 viewBox="0.00 0.00 75.90 188.00" xmlns="http://www.w3.org/2000/svg" xmlns:xlink="http://www.w3.org/1999/xlink">
<g id="graph0" class="graph" transform="scale(1 1) rotate(0) translate(4 184)">
<title>G</title>
<polygon fill="white" stroke="none" points="-4,4 -4,-184 71.9,-184 71.9,4 -4,4"/>
<!-- boot -->
<g id="node1" class="node">
<title>boot</title>
<ellipse fill="none" stroke="black" cx="33.95" cy="-162" rx="27.3" ry="18"/>
<text text-anchor="middle" x="33.95" y="-156.95" font-family="Times,serif" font-size="14.00">boot</text>
</g>
<!-- loader -->
<g id="node2" class="node">
<title>loader</title>
<ellipse fill="none" stroke="black" cx="33.95" cy="-90" rx="33.95" ry="18"/>
<text text-anchor="middle" x="33.95" y="-84.95" font-family="Times,serif" font-size="14.00">loader</text>
</g>
<!-- boot&#45;&gt;loader -->
<g id="edge1" class="edge">
<title>boot&#45;&gt;loader</title>
<path fill="none" stroke="black" d="M33.95,-143.7C33.95,-136.41 33.95,-127.73 33.95,-119.54"/>
<polygon fill="black" stroke="black" points="37.45,-119.62 33.95,-109.62 30.45,-119.62 37.45,-119.62"/>
</g>
<!-- kernel -->
<g id="node3" class="node">
<title>kernel</title>
<ellipse fill="none" stroke="black" cx="33.95" cy="-18" rx="33.95" ry="18"/>
<text text-anchor="middle" x="33.95" y="-12.95" font-family="Times,serif" font-size="14.00">kernel</text>
</g>
<!-- loader&#45;&gt;kernel -->
<g id="edge2" class="edge">
<title>loader&#45;&gt;kernel</title>
<path fill="none" stroke="black" d="M33.95,-71.7C33.95,-64.41 33.95,-55.73 33.95,-47.54"/>
<polygon fill="black" stroke="black" points="37.45,-47.62 33.95,-37.62 30.45,-47.62 37.45,-47.62"/>
</g>
</g>
</svg>
